<svg width="512" height="512" viewBox="0 0 512 512" fill="none" xmlns="http://www.w3.org/2000/svg">
<path d="M511.971 377.112L504.196 372.839C503.703 372.568 455 345.345 455 306V283.518C455 265.745 450.121 249.015 441.549 234.684C459.041 225.466 471 207.108 471 186H441C441 198.111 432.342 208.235 420.892 210.517C408.377 200.09 393.045 192.781 375.963 189.869L209.021 161.413C194.698 158.972 182.375 149.702 176.057 136.617L115.415 21H91V75.188L51 85.188V95.77L0 115.77V132.213L29.787 162H91V213.719C91 252.923 109.546 289.026 141 311.85V461H111V491H171V466.407L207.127 334.106C210.907 333.633 350.685 307.414 350.685 307.414C358.269 329.078 370.677 348.928 387.375 365.625C413.075 391.325 446.237 406.879 482 410.285V461H452V491H512V386L511.971 377.112Z" fill="#0065FC"/>
</svg>
