<svg width="512" height="512" viewBox="0 0 512 512" fill="none" xmlns="http://www.w3.org/2000/svg">
<path d="M471.383 72.5781C444.879 43.832 408.512 28 368.973 28C339.418 28 312.352 37.3438 288.523 55.7695C276.5 65.0703 265.605 76.4492 256 89.7305C246.398 76.4531 235.5 65.0703 223.473 55.7695C199.648 37.3438 172.582 28 143.027 28C103.488 28 67.1172 43.832 40.6133 72.5781C14.4258 100.988 0 139.801 0 181.871C0 225.172 16.1367 264.809 50.7812 306.613C81.7734 344.008 126.316 381.969 177.898 425.926C195.512 440.938 215.477 457.953 236.207 476.078C241.684 480.875 248.711 483.516 256 483.516C263.285 483.516 270.316 480.875 275.785 476.086C296.516 457.957 316.492 440.934 334.113 425.914C385.688 381.965 430.23 344.008 461.223 306.609C495.867 264.809 512 225.172 512 181.867C512 139.801 497.574 100.988 471.383 72.5781Z" fill="#0065FC"/>
</svg>
