<svg width="54" height="54" viewBox="0 0 54 54" fill="none" xmlns="http://www.w3.org/2000/svg">
<g clip-path="url(#clip0)">
<path d="M26.677 8.766C29.0976 8.766 31.06 6.80366 31.06 4.383C31.06 1.96234 29.0976 0 26.677 0C24.2563 0 22.294 1.96234 22.294 4.383C22.294 6.80366 24.2563 8.766 26.677 8.766Z" fill="#0065FC"/>
<path d="M40.201 28.096C38.965 14.209 32.347 11.439 32.347 11.439C32.347 11.439 25.951 7.59402 19.218 12.491C14.853 16.464 13.845 22.529 13.155 28.387C12.806 31.364 17.462 31.328 17.808 28.387C18.22 24.891 18.808 21.379 20.543 18.388L20.535 21.763L20.503 37.982V50.849C20.503 52.232 21.517 53.355 22.941 53.355C24.364 53.355 25.519 52.232 25.519 50.849V32.457H27.797C27.797 36.766 27.797 46.601 27.797 50.908C27.797 53.908 32.449 53.908 32.449 50.908C32.449 46.599 32.449 42.289 32.449 37.981L32.646 21.73C32.648 20.179 32.65 18.793 32.65 17.829C34.509 20.875 35.123 24.493 35.546 28.094C35.895 31.037 40.55 31.073 40.201 28.096Z" fill="#0065FC"/>
</g>
<defs>
<clipPath id="clip0">
<rect width="53.355" height="53.355" fill="white"/>
</clipPath>
</defs>
</svg>
