<svg width="512" height="512" viewBox="0 0 512 512" fill="none" xmlns="http://www.w3.org/2000/svg">
<g clip-path="url(#clip0)">
<path d="M452.151 141.064V134.06C452.151 101.863 425.957 75.668 393.759 75.668H58.392C26.194 75.669 0 101.863 0 134.06V141.064H452.151Z" fill="#0065FC"/>
<path d="M267.129 328.896C267.129 298.607 276.87 269.818 294.855 246.092H0V327.544C0 359.741 26.194 385.936 58.392 385.936H279.455C271.386 368.26 267.129 348.907 267.129 328.896V328.896ZM226.076 311.198H175.68V281.198H226.076V311.198ZM67.258 281.198H145.68V311.198H67.258V281.198Z" fill="#0065FC"/>
<path d="M326 216.092C348.879 200.085 376.058 191.461 404.564 191.461C421.064 191.461 437.116 194.358 452.151 199.895V171.065H0V216.092H326Z" fill="#0065FC"/>
<path d="M512 328.896C512 269.561 463.899 221.461 404.564 221.461C345.229 221.461 297.128 269.561 297.128 328.896C297.128 388.231 345.228 436.331 404.564 436.331C463.899 436.331 512 388.231 512 328.896ZM419.046 386.291V398.5H404.046V398.501V398.5H389.046V386.381C379.977 383.31 372.557 377.907 365.311 372.608L383.021 348.393C392.756 355.513 397.738 358.935 404.564 358.935C408.424 358.935 411.549 357.098 412.721 354.141C414.139 350.561 412.135 347.263 407.357 345.318C407.357 345.318 385.916 338.167 376.003 328.06C367.686 319.582 365.04 307.632 367.688 296.265C370.354 284.82 378.082 275.871 389.046 271.402V259.29H419.046V270.9C426.665 273.016 433.114 276.143 436.822 278.156L422.509 304.521C413.019 299.37 404.289 297.824 400.891 298.986C397.594 300.112 397.093 302.262 396.904 303.072C396.637 304.219 396.494 305.979 398.328 308.023C400.093 309.99 418.668 317.533 418.668 317.533C438.71 325.692 448.142 346.181 440.61 365.192C436.697 375.073 428.821 382.556 419.046 386.291V386.291Z" fill="#0065FC"/>
</g>
<defs>
<clipPath id="clip0">
<rect width="512" height="512" fill="white"/>
</clipPath>
</defs>
</svg>
