<svg width="511" height="491" viewBox="0 0 511 491" fill="none" xmlns="http://www.w3.org/2000/svg">
<path d="M509.663 185.998C506.299 175.651 497.121 168.326 486.306 167.347L338.796 153.955L280.499 17.4698C276.195 7.44234 266.401 0.97052 255.5 0.97052C244.6 0.97052 234.802 7.44234 230.525 17.4698L172.228 153.955L24.6943 167.347C13.8793 168.345 4.72131 175.671 1.33725 185.998C-2.02731 196.345 1.07994 207.694 9.25938 214.868L120.766 312.643L87.8881 457.448C85.4826 468.095 89.6152 479.105 98.4496 485.491C103.198 488.942 108.777 490.665 114.376 490.665C119.187 490.665 124.002 489.386 128.302 486.813L255.5 410.757L382.676 486.813C392.005 492.388 403.736 491.877 412.551 485.491C421.386 479.105 425.518 468.095 423.113 457.448L390.235 312.643L501.741 214.868C509.917 207.694 513.028 196.369 509.663 185.998Z" fill="#0065FC"/>
</svg>
