<svg width="426" height="388" viewBox="0 0 426 388" fill="none" xmlns="http://www.w3.org/2000/svg">
<path d="M221.37 155.214L346.125 198.498V375.067C346.125 378.497 344.722 381.787 342.226 384.212C339.729 386.637 336.343 388 332.812 388H279.562C276.032 388 272.646 386.637 270.149 384.212C267.653 381.787 266.25 378.497 266.25 375.067V284.539H133.125V375.067C133.125 378.497 131.722 381.787 129.226 384.212C126.729 386.637 123.343 388 119.812 388H66.5625C63.0318 388 59.6457 386.637 57.1491 384.212C54.6526 381.787 53.25 378.497 53.25 375.067V202.167C22.3317 191.457 0 163.022 0 129.349C0 122.489 2.80512 115.91 7.79828 111.059C12.7914 106.209 19.5636 103.484 26.625 103.484C33.6864 103.484 40.4586 106.209 45.4517 111.059C50.4449 115.91 53.25 122.489 53.25 129.349C53.2632 136.205 56.0726 142.776 61.0629 147.624C66.0532 152.472 72.8177 155.201 79.875 155.214H221.37ZM426 64.6859V90.551C426 104.271 420.39 117.429 410.403 127.13C400.417 136.831 386.873 142.281 372.75 142.281H346.125V171.04L239.625 134.093V12.9557C239.625 1.4376 253.953 -4.33356 262.348 3.81396L285.046 25.8882H329.667C338.745 25.8882 349.428 32.2898 353.48 40.1868L359.438 51.7534H412.688C416.218 51.7534 419.604 53.1159 422.101 55.5412C424.597 57.9665 426 61.256 426 64.6859ZM332.812 64.6859C332.812 62.1281 332.032 59.6277 330.569 57.501C329.106 55.3742 327.027 53.7166 324.594 52.7378C322.162 51.7589 319.485 51.5028 316.903 52.0018C314.32 52.5009 311.948 53.7326 310.087 55.5412C308.225 57.3499 306.957 59.6542 306.443 62.1629C305.93 64.6716 306.193 67.2719 307.201 69.635C308.208 71.9981 309.915 74.0179 312.104 75.4389C314.293 76.86 316.867 77.6185 319.5 77.6185C323.031 77.6185 326.417 76.2559 328.913 73.8306C331.41 71.4053 332.812 68.1158 332.812 64.6859Z" fill="#0065FC"/>
</svg>
