<svg width="384" height="512" viewBox="0 0 384 512" fill="none" xmlns="http://www.w3.org/2000/svg">
<path d="M120 72C120 32.235 152.235 0 192 0C231.765 0 264 32.235 264 72C264 111.764 231.765 144 192 144C152.235 144 120 111.764 120 72ZM374.627 73.373C362.131 60.876 341.869 60.876 329.373 73.373L242.745 160H141.254L54.627 73.373C42.131 60.876 21.869 60.876 9.37299 73.373C-3.12401 85.87 -3.12401 106.131 9.37299 118.628L104 213.254V480C104 497.673 118.327 512 136 512H152C169.673 512 184 497.673 184 480V368H200V480C200 497.673 214.327 512 232 512H248C265.673 512 280 497.673 280 480V213.254L374.627 118.627C387.124 106.13 387.124 85.87 374.627 73.373V73.373Z" fill="#0065FC"/>
</svg>
