<svg width="640" height="448" viewBox="0 0 640 448" fill="none" xmlns="http://www.w3.org/2000/svg">
<path d="M621.16 22.46C582.37 6.19 543.55 1.20276e-06 504.75 1.20276e-06C381.58 -0.0099988 258.42 62.34 135.25 62.34C104.36 62.34 73.49 58.42 42.6 48.62C39.13 47.52 35.65 47 32.25 47C15.04 47 0 60.32 0 78.81V396.07C0 408.7 7.23 420.67 18.84 425.53C57.63 441.81 96.45 448 135.25 448C258.42 448 381.59 385.65 504.76 385.65C535.65 385.65 566.52 389.57 597.41 399.37C600.88 400.47 604.36 400.99 607.76 400.99C624.97 400.99 640.01 387.67 640.01 369.18V51.93C640 39.29 632.77 27.33 621.16 22.46ZM48 100.22C68.12 105.26 89.12 107.79 110.72 109.15C104.84 138.54 79 160.69 48 160.69V100.22ZM48 385.22V337.44C82.37 337.44 110.18 364.71 111.71 398.84C89.18 397.03 68.12 392.53 48 385.22ZM320 320C275.81 320 240 277.01 240 224C240 170.98 275.82 128 320 128C364.18 128 400 170.98 400 224C400 277.03 364.17 320 320 320ZM592 347.78C574.48 343.39 556.29 340.93 537.68 339.34C543.55 313.26 565.18 293.46 592 290.06V347.78ZM592 111.67C561.11 107.76 537.14 81.97 536.19 50.12C555.73 52.29 574.28 56.35 592 62.78V111.67Z" fill="#0065FC"/>
</svg>
