<svg width="511" height="490" viewBox="0 0 511 490" fill="none" xmlns="http://www.w3.org/2000/svg">
<path d="M509.664 185.028C506.299 174.681 497.122 167.355 486.307 166.376L338.796 152.984L280.499 16.4992C276.195 6.4718 266.401 0 255.501 0C244.6 0 234.802 6.4718 230.526 16.4992L172.229 152.984L24.6949 166.376C13.8799 167.374 4.72186 174.7 1.33786 185.028C-2.02714 195.375 1.07985 206.724 9.25985 213.897L120.766 311.673L87.8883 456.478C85.4828 467.125 89.6154 478.135 98.4498 484.521C103.198 487.971 108.777 489.694 114.376 489.694C119.187 489.694 124.002 488.416 128.302 485.843L255.501 409.787L382.676 485.843C392.005 491.418 403.737 490.907 412.551 484.521C421.386 478.135 425.518 467.125 423.113 456.478L390.235 311.673L501.742 213.897C509.917 206.724 513.028 195.398 509.664 185.028Z" fill="#D9D9D9"/>
</svg>
