<svg width="340" height="442" viewBox="0 0 340 442" fill="none" xmlns="http://www.w3.org/2000/svg">
<path d="M338.664 137.028C335.299 126.681 326.122 119.355 315.307 118.376L167.796 104.984L109.499 -31.5008C105.195 -41.5282 95.4014 -48 84.5007 -48C73.6 -48 63.8026 -41.5282 59.5257 -31.5008L1.22865 104.984L-146.305 118.376C-157.12 119.374 -166.278 126.7 -169.662 137.028C-173.027 147.375 -169.92 158.724 -161.74 165.897L-50.234 263.673L-83.1116 408.478C-85.5171 419.125 -81.3845 430.135 -72.5501 436.521C-67.8015 439.971 -62.2225 441.694 -56.6239 441.694C-51.813 441.694 -46.9981 440.416 -42.6978 437.843L84.5007 361.787L211.676 437.843C221.005 443.418 232.737 442.907 241.551 436.521C250.386 430.135 254.518 419.125 252.113 408.478L219.235 263.673L330.742 165.897C338.917 158.724 342.028 147.398 338.664 137.028V137.028Z" fill="#E5E5E5"/>
</svg>
